# xmcd CD database file generated by Grip 3.0.1
# 
# Track frame offsets:
#       150
#       12983
#       26338
#       43284
#       54625
#       65776
#       76526
#       83530
#       100023
#       116312
#       131140
#       143697
# 
# Disc length: 2050 seconds
# 
# Revision: 2
# Processed by: cddbd v1.4PL0 Copyright (c) Steve Scherf et al.
# Submitted via: Grip 3.0.1
# 
DISCID=9208000c
DTITLE=Jason Ringenberg - Pocketful of Soul
DYEAR=2000
DGENRE=Country
TTITLE0=Oh Lonesome Prairie
TTITLE1=Whispering Pines
TTITLE2=Under Your Command
TTITLE3=Trail of Tears
TTITLE4=For Addie Rose
TTITLE5=A Pocketful of Soul
TTITLE6=Hay Baling Time
TTITLE7=The Last of the Neon Cowboys
TTITLE8=The Price of Progress
TTITLE9=Merry Christmas My Darling
TTITLE10=I Never Knew You
TTITLE11=The Last Ride
EXTD=
EXTT0=
EXTT1=
EXTT2=
EXTT3=
EXTT4=
EXTT5=
EXTT6=
EXTT7=
EXTT8=
EXTT9=
EXTT10=
EXTT11=
PLAYORDER=
